<svg xmlns="http://www.w3.org/2000/svg" width="256" height="256" viewBox="0 0 100 100"><rect width="100" height="100" rx="50" fill="#9b9b9b"></rect><path d="M13.63 28.01L13.63 28.01Q13.63 20.96 16.23 15.30Q18.83 9.64 23.47 5.65Q28.11 1.67 33.95-0.65Q39.79-2.97 46.10-3.53L46.10-3.53L46.10 15.02Q41.28 15.95 38.59 18.92Q35.90 21.89 35.90 27.27L35.90 27.27Q35.90 31.72 38.77 34.41Q41.65 37.10 46.10 39.15L46.10 39.15L46.10 59.00Q42.95 58.07 39.70 56.87Q36.46 55.66 33.30 54.17L33.30 54.17Q23.47 48.98 18.55 43.23Q13.63 37.48 13.63 28.01ZM82.84 4.82L75.61 20.22Q70.60 17.62 64.94 16.32Q59.28 15.02 53.71 14.65L53.71 14.65L53.71-3.72Q62.06-3.34 69.11-1.40Q76.16 0.55 82.84 4.82L82.84 4.82ZM14.00 94.44L23.47 79.41Q27.18 82.01 32.28 84.23Q37.38 86.46 45.18 86.46L45.18 86.46L46.10 86.46L46.10 103.72Q41.46 103.72 37.57 103.44Q33.67 103.16 29.87 102.14Q26.06 101.12 22.17 99.26Q18.27 97.41 14.00 94.44L14.00 94.44ZM53.71 61.78L53.71 42.11Q59.28 43.97 65.03 46.20Q70.78 48.42 75.51 51.76Q80.24 55.10 83.31 60.02Q86.37 64.94 86.37 72.36L86.37 72.36Q86.37 79.59 83.77 84.98Q81.17 90.36 76.81 94.25Q72.45 98.15 66.51 100.38Q60.58 102.60 53.71 103.34L53.71 103.34L53.71 85.72Q60.02 84.60 63.45 81.73Q66.88 78.85 66.88 74.03L66.88 74.03Q66.88 69.20 63.08 66.51Q59.28 63.82 53.71 61.78L53.71 61.78Z" fill="#fff"></path></svg>