<svg width="501" height="492" viewBox="0 0 501 492" fill="none" xmlns="http://www.w3.org/2000/svg">
<g filter="url(#filter0_d_78_256)">
<path d="M0 0H479V472H0V0Z" fill="#E9D3AE"/>
<g filter="url(#filter1_d_78_256)">
<path d="M361.5 125C364.5 128.5 302 325 289 369L285.5 370.5H283H280L131 326.5L124 324L119 320.5V315.5L208 108.5L210.5 104.5L213 101.5H219L354 121.5L359.5 123L361.5 125Z" fill="#976E4F"/>
<path d="M361.5 125C364.5 128.5 302 325 289 369L285.5 370.5H283H280L131 326.5L124 324L119 320.5V315.5L208 108.5L210.5 104.5L213 101.5H219L354 121.5L359.5 123L361.5 125Z" stroke="black" stroke-width="13"/>
</g>
</g>
<defs>
<filter id="filter0_d_78_256" x="0" y="0" width="501" height="492" filterUnits="userSpaceOnUse" color-interpolation-filters="sRGB">
<feFlood flood-opacity="0" result="BackgroundImageFix"/>
<feColorMatrix in="SourceAlpha" type="matrix" values="0 0 0 0 0 0 0 0 0 0 0 0 0 0 0 0 0 0 127 0" result="hardAlpha"/>
<feOffset dx="18" dy="16"/>
<feGaussianBlur stdDeviation="2"/>
<feComposite in2="hardAlpha" operator="out"/>
<feColorMatrix type="matrix" values="0 0 0 0 0 0 0 0 0 0 0 0 0 0 0 0 0 0 0.25 0"/>
<feBlend mode="normal" in2="BackgroundImageFix" result="effect1_dropShadow_78_256"/>
<feBlend mode="normal" in="SourceGraphic" in2="effect1_dropShadow_78_256" result="shape"/>
</filter>
<filter id="filter1_d_78_256" x="112.5" y="95" width="267.604" height="299" filterUnits="userSpaceOnUse" color-interpolation-filters="sRGB">
<feFlood flood-opacity="0" result="BackgroundImageFix"/>
<feColorMatrix in="SourceAlpha" type="matrix" values="0 0 0 0 0 0 0 0 0 0 0 0 0 0 0 0 0 0 127 0" result="hardAlpha"/>
<feOffset dx="8" dy="13"/>
<feGaussianBlur stdDeviation="2"/>
<feComposite in2="hardAlpha" operator="out"/>
<feColorMatrix type="matrix" values="0 0 0 0 0 0 0 0 0 0 0 0 0 0 0 0 0 0 0.25 0"/>
<feBlend mode="normal" in2="BackgroundImageFix" result="effect1_dropShadow_78_256"/>
<feBlend mode="normal" in="SourceGraphic" in2="effect1_dropShadow_78_256" result="shape"/>
</filter>
</defs>
</svg>
