<svg width="586" height="492" viewBox="0 0 586 492" fill="none" xmlns="http://www.w3.org/2000/svg">
<g filter="url(#filter0_d_134_171)">
<rect x="49" width="479" height="472" fill="#E9D3AE"/>
</g>
<g filter="url(#filter1_d_134_171)">
<path d="M307.363 279.486V252.026L309.724 178.547L311.822 167.614L325.463 157.444H332.284L355.893 217.957L478.399 101.763H494.663L504.894 108.882L506.993 127.697L521.945 115.747L535.324 111.679L546.079 115.747L552.375 127.697V138.884L465.283 223.296L543.456 150.834H562.606L571 161.767V178.293L482.859 269.316L530.34 220.753H543.456L556.834 226.093L562.606 239.06L556.834 252.026L452.429 351.948L430.656 363.135L399.439 368.729L372.944 363.135L344.351 346.609L325.463 325.506L314.97 304.403C312.434 296.436 307.363 280.299 307.363 279.486Z" fill="#976E4F"/>
<path d="M269.588 182.107L265.128 167.614L258.046 162.529C255.685 160.834 250.123 158.156 246.766 161.004C243.408 163.851 230.676 201.006 224.73 219.228L114.553 109.899L97.7647 101L87.2716 103.797C83.4242 105.831 75.8342 109.899 76.254 109.899C76.6737 109.899 74.1553 120.193 72.8437 125.34L60.5144 112.95L47.3981 109.899L34.0195 112.95C31.3963 116.255 26.1498 123.018 26.1498 123.629V138.121L114.553 222.025L34.0195 150.325H18.8047L11.1972 157.444L7 170.157L11.1972 182.107L100.913 270.333L47.3981 219.228L34.0195 222.025L22.2149 227.872L18.8047 239.06C20.1163 243.382 22.6346 252.026 22.2149 252.026C21.7952 252.026 106.509 327.624 148.918 365.423L161.247 370H183.807L207.941 363.135L235.748 346.609L253.848 325.506L265.128 304.403L274.31 279.486V252.026L269.588 182.107Z" fill="#976E4F"/>
<path d="M506.993 127.697L521.945 115.747L535.324 111.679L546.079 115.747L552.375 127.697V138.884L465.283 223.296L543.456 150.834H562.606L571 161.767V178.293L482.859 269.316L530.34 220.753H543.456L556.834 226.093L562.606 239.06L556.834 252.026L452.429 351.948L430.656 363.135L399.439 368.729L372.944 363.135L344.351 346.609L325.463 325.506L314.97 304.403C312.434 296.436 307.363 280.299 307.363 279.486C307.363 278.672 307.363 260.841 307.363 252.026L309.724 178.547L311.822 167.614L325.463 157.444H332.284L355.893 217.957L478.399 101.763H494.663L504.894 108.882L506.993 127.697ZM506.993 127.697L430.656 204.481M250.963 157.444L258.046 162.529M153.115 206.007L72.8437 125.34M72.8437 125.34L60.5144 112.95L47.3981 109.899L34.0195 112.95C31.3963 116.255 26.1498 123.018 26.1498 123.629C26.1498 124.239 26.1498 133.544 26.1498 138.121L114.553 222.025L34.0195 150.325H18.8047L11.1972 157.444L7 170.157L11.1972 182.107L100.913 270.333L47.3981 219.228L34.0195 222.025L22.2149 227.872L18.8047 239.06C20.1163 243.382 22.6346 252.026 22.2149 252.026C21.7952 252.026 106.509 327.624 148.918 365.423L161.247 370H183.807L207.941 363.135L235.748 346.609L253.848 325.506L265.128 304.403L274.31 279.486V252.026L269.588 182.107L265.128 167.614L258.046 162.529M72.8437 125.34C74.1553 120.193 76.6737 109.899 76.254 109.899C75.8342 109.899 83.4242 105.831 87.2716 103.797L97.7647 101L114.553 109.899L224.73 219.228C230.676 201.006 243.408 163.851 246.766 161.004C250.123 158.156 255.685 160.834 258.046 162.529" stroke="black" stroke-width="13"/>
</g>
<defs>
<filter id="filter0_d_134_171" x="49" y="0" width="501" height="492" filterUnits="userSpaceOnUse" color-interpolation-filters="sRGB">
<feFlood flood-opacity="0" result="BackgroundImageFix"/>
<feColorMatrix in="SourceAlpha" type="matrix" values="0 0 0 0 0 0 0 0 0 0 0 0 0 0 0 0 0 0 127 0" result="hardAlpha"/>
<feOffset dx="18" dy="16"/>
<feGaussianBlur stdDeviation="2"/>
<feComposite in2="hardAlpha" operator="out"/>
<feColorMatrix type="matrix" values="0 0 0 0 0 0 0 0 0 0 0 0 0 0 0 0 0 0 0.25 0"/>
<feBlend mode="normal" in2="BackgroundImageFix" result="effect1_dropShadow_134_171"/>
<feBlend mode="normal" in="SourceGraphic" in2="effect1_dropShadow_134_171" result="shape"/>
</filter>
<filter id="filter1_d_134_171" x="0.133484" y="94.0624" width="585.367" height="298.438" filterUnits="userSpaceOnUse" color-interpolation-filters="sRGB">
<feFlood flood-opacity="0" result="BackgroundImageFix"/>
<feColorMatrix in="SourceAlpha" type="matrix" values="0 0 0 0 0 0 0 0 0 0 0 0 0 0 0 0 0 0 127 0" result="hardAlpha"/>
<feOffset dx="4" dy="12"/>
<feGaussianBlur stdDeviation="2"/>
<feComposite in2="hardAlpha" operator="out"/>
<feColorMatrix type="matrix" values="0 0 0 0 0 0 0 0 0 0 0 0 0 0 0 0 0 0 0.25 0"/>
<feBlend mode="normal" in2="BackgroundImageFix" result="effect1_dropShadow_134_171"/>
<feBlend mode="normal" in="SourceGraphic" in2="effect1_dropShadow_134_171" result="shape"/>
</filter>
</defs>
</svg>
